<svg id="Layer_1" data-name="Layer 1" xmlns="http://www.w3.org/2000/svg" viewBox="0 0 307.7 110.79"><defs><style>.cls-1,.cls-2{fill:#96b236;}.cls-2{fill-rule:evenodd;}</style></defs><path class="cls-1" d="M206.82,128.31V115.47h8.25v2.65h-5.46V121H215v2.65h-5.34v3h5.66v2.64h-8.45Zm-17.09.94h-1.85V117l-.13-.15h.13v-1.4h2.26l.29.35,3.85,4.76,3.75-4.75.28-.36h2.28v1.26h.09l-.09.11v12.41H197.8v-8.88L195,123.9l-.29.36h-1l-.28-.35-2.8-3.45v8.79ZM175,126.69a4.09,4.09,0,0,0,3.05-1.26h0A4.19,4.19,0,0,0,179,124a4.65,4.65,0,0,0,0-3.34,4.36,4.36,0,0,0-.95-1.39,4.14,4.14,0,0,0-1.39-1,4.57,4.57,0,0,0-3.31,0,4.24,4.24,0,0,0-1.39,1,4.17,4.17,0,0,0-.94,1.39,4.34,4.34,0,0,0-.32,1.68,4.22,4.22,0,0,0,1.26,3.06,4.36,4.36,0,0,0,1.39.95A4.22,4.22,0,0,0,175,126.69Zm0,2.71a7.1,7.1,0,0,1-2.73-.53,7,7,0,0,1-2.32-1.54,6.89,6.89,0,0,1-1.59-2.27,6.91,6.91,0,0,1,1.59-7.67,7.18,7.18,0,0,1,2.32-1.54,7.21,7.21,0,0,1,7.8,1.54,7.24,7.24,0,0,1,1.59,2.28,6.89,6.89,0,0,1,.54,2.7,6.72,6.72,0,0,1-2.13,5A7,7,0,0,1,175,129.4Zm-24.52-1.09V115.47h2.79V121h6v-5.54H162v13.78h-2.79v-5.59h-6v5.59h-2.79Z" transform="translate(-26.15 -18.6)"/><polygon class="cls-1" points="1.52 105.31 0 105.31 0 102.21 1.52 102.21 119.14 102.21 120.65 102.21 120.65 105.31 119.14 105.31 1.52 105.31"/><rect class="cls-1" x="192.77" y="102.19" width="114.89" height="3.14"/><path class="cls-2" d="M127.21,61.72h22.91a22.63,22.63,0,0,0,12.94-3.47c3.51-2.3,4.36-6.16,4.36-10.13,0-3.68-.56-8.45-4-10.57-4-2.47-8.84-3.26-13.5-3.26l-22.72-.09Zm0,13V111h-13V21.23H151.4c7.28.08,14.25,1.94,20.09,6.45,6.51,5,8.89,12.55,8.89,20.56,0,8.4-2.78,16-10,20.71A37,37,0,0,1,150,74.67Z" transform="translate(-26.15 -18.6)"/><rect class="cls-1" x="63.5" y="2.63" width="12.84" height="89.8"/><polygon class="cls-2" points="12.98 79.48 59.24 79.48 59.24 92.42 0.02 92.42 0.02 2.63 12.98 2.63 12.98 79.48"/><path class="cls-2" d="M304.31,72.23,293.26,44.29,282,72.23Zm-49.13,31.52,33.51-82.52h9.5L333.85,111h-14l-10.2-25.62h-33L266.18,111h-21.6l-37-42-12.4,10.83V111H182.29V21.23h12.85V62.74l47-41.51h19.46L217.1,60.54Z" transform="translate(-26.15 -18.6)"/><path class="cls-1" d="M321.21,28.14h.89a10.53,10.53,0,0,0,2.35-.15,1.45,1.45,0,0,0,.72-.51,1.4,1.4,0,0,0,.27-.84,1.32,1.32,0,0,0-.26-.8,1.38,1.38,0,0,0-.74-.51,10.6,10.6,0,0,0-2.34-.15h-.89ZM319,34.3V23.45h2.19c2.05,0,3.2,0,3.44,0a4.27,4.27,0,0,1,1.69.43,2.73,2.73,0,0,1,1,1,3.08,3.08,0,0,1,.41,1.56,2.89,2.89,0,0,1-.77,2,3.48,3.48,0,0,1-2.14,1,2.79,2.79,0,0,1,.76.4,5.56,5.56,0,0,1,.73.84c.08.1.34.54.79,1.32l1.27,2.18h-2.7l-.9-1.75a7.17,7.17,0,0,0-1.51-2.24,2.38,2.38,0,0,0-1.51-.46h-.57V34.3Zm4.6-13.69a8.23,8.23,0,0,0-4,1.05,7.68,7.68,0,0,0-3,3,8.3,8.3,0,0,0,0,8.24,7.77,7.77,0,0,0,3,3,8.09,8.09,0,0,0,8.11,0,7.74,7.74,0,0,0,3-3,8.23,8.23,0,0,0,1.09-4.1,8.44,8.44,0,0,0-1.1-4.14,7.64,7.64,0,0,0-3-3A8.26,8.26,0,0,0,323.62,20.61Zm0-2a10.19,10.19,0,0,1,5,1.32,9.52,9.52,0,0,1,3.78,3.77,10.32,10.32,0,0,1,0,10.24,9.64,9.64,0,0,1-3.75,3.77,10.07,10.07,0,0,1-10.11,0,9.64,9.64,0,0,1-3.75-3.77,10.35,10.35,0,0,1,0-10.24,9.43,9.43,0,0,1,3.77-3.77A10.26,10.26,0,0,1,323.61,18.6Z" transform="translate(-26.15 -18.6)"/></svg>